<?xml version="1.0" encoding="UTF-8" standalone="no"?>
<!-- Generator: Adobe Illustrator 17.1.0, SVG Export Plug-In . SVG Version: 6.00 Build 0)  -->

<svg
   xmlns:dc="http://purl.org/dc/elements/1.1/"
   xmlns:cc="http://creativecommons.org/ns#"
   xmlns:rdf="http://www.w3.org/1999/02/22-rdf-syntax-ns#"
   xmlns:svg="http://www.w3.org/2000/svg"
   xmlns="http://www.w3.org/2000/svg"
   xmlns:xlink="http://www.w3.org/1999/xlink"
   xmlns:sodipodi="http://sodipodi.sourceforge.net/DTD/sodipodi-0.dtd"
   xmlns:inkscape="http://www.inkscape.org/namespaces/inkscape"
   version="1.1"
   id="Capa_1"
   x="0px"
   y="0px"
   viewBox="0 0 25.999999 25.999999"
   xml:space="preserve"
   sodipodi:docname="icon-find-jobs.svg"
   width="26"
   height="26"
   inkscape:version="0.92.3 (2405546, 2018-03-11)"><metadata
   id="metadata39"><rdf:RDF><cc:Work
       rdf:about=""><dc:format>image/svg+xml</dc:format><dc:type
         rdf:resource="http://purl.org/dc/dcmitype/StillImage" /><dc:title /></cc:Work></rdf:RDF></metadata><defs
   id="defs37"><linearGradient
     inkscape:collect="always"
     id="linearGradient922"><stop
       style="stop-color:#fd3172;stop-opacity:0.99215686"
       offset="0"
       id="stop918" /><stop
       style="stop-color:#f60250;stop-opacity:0.99215686"
       offset="1"
       id="stop920" /></linearGradient><linearGradient
     inkscape:collect="always"
     xlink:href="#linearGradient922"
     id="linearGradient887"
     x1="-102.72173"
     y1="82.05304"
     x2="-78.926086"
     y2="73.660072"
     gradientUnits="userSpaceOnUse" /></defs><sodipodi:namedview
   pagecolor="#ffffff"
   bordercolor="#666666"
   borderopacity="1"
   objecttolerance="10"
   gridtolerance="10"
   guidetolerance="10"
   inkscape:pageopacity="0"
   inkscape:pageshadow="2"
   inkscape:window-width="1920"
   inkscape:window-height="1001"
   id="namedview35"
   showgrid="false"
   inkscape:zoom="3.336126"
   inkscape:cx="-35.983641"
   inkscape:cy="36.808111"
   inkscape:window-x="2391"
   inkscape:window-y="-9"
   inkscape:window-maximized="1"
   inkscape:current-layer="Capa_1" />

<g
   id="g4"
   transform="translate(0,-174.08501)">
</g>
<g
   id="g6"
   transform="translate(0,-174.08501)">
</g>
<g
   id="g8"
   transform="translate(0,-174.08501)">
</g>
<g
   id="g10"
   transform="translate(0,-174.08501)">
</g>
<g
   id="g12"
   transform="translate(0,-174.08501)">
</g>
<g
   id="g14"
   transform="translate(0,-174.08501)">
</g>
<g
   id="g16"
   transform="translate(0,-174.08501)">
</g>
<g
   id="g18"
   transform="translate(0,-174.08501)">
</g>
<g
   id="g20"
   transform="translate(0,-174.08501)">
</g>
<g
   id="g22"
   transform="translate(0,-174.08501)">
</g>
<g
   id="g24"
   transform="translate(0,-174.08501)">
</g>
<g
   id="g26"
   transform="translate(0,-174.08501)">
</g>
<g
   id="g28"
   transform="translate(0,-174.08501)">
</g>
<g
   id="g30"
   transform="translate(0,-174.08501)">
</g>
<g
   id="g32"
   transform="translate(0,-174.08501)">
</g>
<g
   id="g929"
   transform="matrix(0.02161937,0,0,0.02161937,2.190315,2.190315)"
   style="fill:#fd3272;fill-opacity:0.99215686"><path
     id="path927"
     d="M 360,220 H 640 V 150 H 360 Z m 630,350 v 262.5 c 0,24.1 -8.6,44.7 -25.7,61.8 -17.1,17.1 -37.7,25.7 -61.8,25.7 H 97.5 C 73.4,920 52.8,911.4 35.7,894.3 18.6,877.2 10,856.6 10,832.5 V 570 h 367.5 v 87.5 c 0,9.5 3.5,17.7 10.4,24.6 6.9,6.9 15.1,10.4 24.6,10.4 h 175 c 9.5,0 17.7,-3.5 24.6,-10.4 6.9,-6.9 10.4,-15.1 10.4,-24.6 V 570 Z m -420,0 v 70 H 430 V 570 Z M 990,307.5 v 210 H 10 v -210 C 10,283.4 18.6,262.8 35.7,245.7 52.8,228.6 73.4,220 97.5,220 H 290 v -87.5 c 0,-14.6 5.1,-27 15.3,-37.2 C 315.5,85.1 327.9,80 342.5,80 h 315 c 14.6,0 27,5.1 37.2,15.3 10.2,10.2 15.3,22.6 15.3,37.2 V 220 h 192.5 c 24.1,0 44.7,8.6 61.8,25.7 17.1,17.1 25.7,37.7 25.7,61.8 z"
     inkscape:connector-curvature="0"
     style="fill:#fd3272;fill-opacity:0.99215686" /></g></svg>