<?xml version="1.0" encoding="UTF-8" standalone="no"?>
<!-- Generator: Adobe Illustrator 19.0.0, SVG Export Plug-In . SVG Version: 6.00 Build 0)  -->

<svg
   xmlns:dc="http://purl.org/dc/elements/1.1/"
   xmlns:cc="http://creativecommons.org/ns#"
   xmlns:rdf="http://www.w3.org/1999/02/22-rdf-syntax-ns#"
   xmlns:svg="http://www.w3.org/2000/svg"
   xmlns="http://www.w3.org/2000/svg"
   xmlns:sodipodi="http://sodipodi.sourceforge.net/DTD/sodipodi-0.dtd"
   xmlns:inkscape="http://www.inkscape.org/namespaces/inkscape"
   version="1.1"
   id="Layer_1"
   x="0px"
   y="0px"
   viewBox="0 0 12 24"
   xml:space="preserve"
   sodipodi:docname="icon-arrow-right.svg"
   width="12"
   height="24"
   inkscape:version="0.92.3 (2405546, 2018-03-11)"
   inkscape:export-filename="D:\jobster\src\assets\icon-arrow-right.png"
   inkscape:export-xdpi="96"
   inkscape:export-ydpi="96"><metadata
   id="metadata43"><rdf:RDF><cc:Work
       rdf:about=""><dc:format>image/svg+xml</dc:format><dc:type
         rdf:resource="http://purl.org/dc/dcmitype/StillImage" /><dc:title></dc:title></cc:Work></rdf:RDF></metadata><defs
   id="defs41" /><sodipodi:namedview
   pagecolor="#ffffff"
   bordercolor="#666666"
   borderopacity="1"
   objecttolerance="10"
   gridtolerance="10"
   guidetolerance="10"
   inkscape:pageopacity="0"
   inkscape:pageshadow="2"
   inkscape:window-width="1920"
   inkscape:window-height="1001"
   id="namedview39"
   showgrid="false"
   inkscape:zoom="15.349593"
   inkscape:cx="21.35277"
   inkscape:cy="15.126972"
   inkscape:window-x="2391"
   inkscape:window-y="-9"
   inkscape:window-maximized="1"
   inkscape:current-layer="g833" />
<g
   id="g6"
   transform="matrix(-0.04102776,0,0,0.04102776,20.185827,5.5241685)">
	<g
   id="g4">
		
	<g
   id="g833"
   transform="matrix(0.54150449,0,0,0.54150449,227.31558,-389.54555)"
   inkscape:export-xdpi="96"
   inkscape:export-ydpi="96"><g
     id="g837"
     transform="matrix(1.5,0,0,1.3333333,-244.39309,410.42635)"><path
       d="m 463.69475,209.52913 0.69708,0.16654 h -212.345 l 93.93846,-102.82252 c 4.59999,-5.01999 7.12326,-11.82037 7.12326,-18.957794 0,-7.137424 -2.52327,-13.890221 -7.12326,-18.922105 L 331.36845,53.021282 c -4.59636,-5.019988 -10.7212,-7.795653 -17.25267,-7.795653 -6.5351,0 -12.66358,2.755839 -17.25993,7.775827 L 135.82731,228.85569 c -4.61451,5.03982 -7.13778,11.75296 -7.11963,18.89435 -0.0182,7.18104 2.50512,13.89815 7.11963,18.93004 l 161.02854,175.87009 c 4.59635,5.01603 10.7212,7.77583 17.25993,7.77583 6.53147,0 12.65631,-2.76377 17.25267,-7.77583 l 14.61684,-15.97197 c 4.59999,-5.01205 7.12326,-11.70537 7.12326,-18.8428 0,-7.13346 -2.52327,-13.47387 -7.12326,-18.48989 l -94.9986,-103.39749 h 213.04207 c 13.45868,0 24.76804,-12.66892 24.76804,-27.36012 v -22.58995 c 0,-14.6912 -11.64337,-26.36882 -25.10205,-26.36882 z"
       id="path2"
       inkscape:connector-curvature="0"
       style="fill:#1c6188;fill-opacity:1;stroke-width:0.94855917"
       sodipodi:nodetypes="ccccsccscccccsccsccsssc" /><path
       sodipodi:nodetypes="ccccsccscccccsccsccsssc"
       style="fill:#ff194e;fill-opacity:1;stroke-width:0.94855917"
       inkscape:connector-curvature="0"
       id="path829"
       d="m 463.69475,614.6295 0.69708,0.16654 h -212.345 l 93.93846,-102.82252 c 4.59999,-5.01999 7.12326,-11.82037 7.12326,-18.95779 0,-7.13743 -2.52327,-13.89022 -7.12326,-18.92211 l -14.61684,-15.97197 c -4.59636,-5.01999 -10.7212,-7.79565 -17.25267,-7.79565 -6.5351,0 -12.66358,2.75584 -17.25993,7.77583 L 135.82731,633.95606 c -4.61451,5.03982 -7.13778,11.75296 -7.11963,18.89435 -0.0182,7.18104 2.50512,13.89815 7.11963,18.93004 l 161.02854,175.87009 c 4.59635,5.01603 10.7212,7.77583 17.25993,7.77583 6.53147,0 12.65631,-2.76377 17.25267,-7.77583 l 14.61684,-15.97197 c 4.59999,-5.01205 7.12326,-11.70537 7.12326,-18.8428 0,-7.13346 -2.52327,-13.47387 -7.12326,-18.48989 l -94.9986,-103.39749 h 213.04207 c 13.45868,0 24.76804,-12.66892 24.76804,-27.36012 v -22.58995 c 0,-14.6912 -11.64337,-26.36882 -25.10205,-26.36882 z" /></g></g></g>
</g>
<g
   id="g8"
   transform="translate(0,-468)">
</g>
<g
   id="g10"
   transform="translate(0,-468)">
</g>
<g
   id="g12"
   transform="translate(0,-468)">
</g>
<g
   id="g14"
   transform="translate(0,-468)">
</g>
<g
   id="g16"
   transform="translate(0,-468)">
</g>
<g
   id="g18"
   transform="translate(0,-468)">
</g>
<g
   id="g20"
   transform="translate(0,-468)">
</g>
<g
   id="g22"
   transform="translate(0,-468)">
</g>
<g
   id="g24"
   transform="translate(0,-468)">
</g>
<g
   id="g26"
   transform="translate(0,-468)">
</g>
<g
   id="g28"
   transform="translate(0,-468)">
</g>
<g
   id="g30"
   transform="translate(0,-468)">
</g>
<g
   id="g32"
   transform="translate(0,-468)">
</g>
<g
   id="g34"
   transform="translate(0,-468)">
</g>
<g
   id="g36"
   transform="translate(0,-468)">
</g>
</svg>