<?xml version="1.0" encoding="UTF-8" standalone="no"?>
<!-- Generator: Adobe Illustrator 17.1.0, SVG Export Plug-In . SVG Version: 6.00 Build 0)  -->

<svg
   xmlns:dc="http://purl.org/dc/elements/1.1/"
   xmlns:cc="http://creativecommons.org/ns#"
   xmlns:rdf="http://www.w3.org/1999/02/22-rdf-syntax-ns#"
   xmlns:svg="http://www.w3.org/2000/svg"
   xmlns="http://www.w3.org/2000/svg"
   xmlns:sodipodi="http://sodipodi.sourceforge.net/DTD/sodipodi-0.dtd"
   xmlns:inkscape="http://www.inkscape.org/namespaces/inkscape"
   version="1.1"
   id="Capa_1"
   x="0px"
   y="0px"
   viewBox="0 0 25.999999 25.999999"
   xml:space="preserve"
   sodipodi:docname="icon-manager.svg"
   width="26"
   height="26"
   inkscape:version="0.92.3 (2405546, 2018-03-11)"><metadata
   id="metadata39"><rdf:RDF><cc:Work
       rdf:about=""><dc:format>image/svg+xml</dc:format><dc:type
         rdf:resource="http://purl.org/dc/dcmitype/StillImage" /><dc:title /></cc:Work></rdf:RDF></metadata><defs
   id="defs37" /><sodipodi:namedview
   pagecolor="#ffffff"
   bordercolor="#666666"
   borderopacity="1"
   objecttolerance="10"
   gridtolerance="10"
   guidetolerance="10"
   inkscape:pageopacity="0"
   inkscape:pageshadow="2"
   inkscape:window-width="1920"
   inkscape:window-height="1001"
   id="namedview35"
   showgrid="false"
   inkscape:zoom="3.336126"
   inkscape:cx="-68.594717"
   inkscape:cy="104.74179"
   inkscape:window-x="2391"
   inkscape:window-y="-9"
   inkscape:window-maximized="1"
   inkscape:current-layer="Capa_1" />

<g
   id="g4"
   transform="translate(0,-174.08501)">
</g>
<g
   id="g6"
   transform="translate(0,-174.08501)">
</g>
<g
   id="g8"
   transform="translate(0,-174.08501)">
</g>
<g
   id="g10"
   transform="translate(0,-174.08501)">
</g>
<g
   id="g12"
   transform="translate(0,-174.08501)">
</g>
<g
   id="g14"
   transform="translate(0,-174.08501)">
</g>
<g
   id="g16"
   transform="translate(0,-174.08501)">
</g>
<g
   id="g18"
   transform="translate(0,-174.08501)">
</g>
<g
   id="g20"
   transform="translate(0,-174.08501)">
</g>
<g
   id="g22"
   transform="translate(0,-174.08501)">
</g>
<g
   id="g24"
   transform="translate(0,-174.08501)">
</g>
<g
   id="g26"
   transform="translate(0,-174.08501)">
</g>
<g
   id="g28"
   transform="translate(0,-174.08501)">
</g>
<g
   id="g30"
   transform="translate(0,-174.08501)">
</g>
<g
   id="g32"
   transform="translate(0,-174.08501)">
</g>
<g
   id="g912"
   transform="matrix(0.0224608,0,0,0.0224608,1.7696,1.7696132)"
   style="fill:#fd3272;fill-opacity:1"><g
     id="g910"
     transform="matrix(0.1,0,0,-0.1,0,512)"
     style="fill:#fd3272;fill-opacity:1"><path
       id="path904"
       d="M 4657.3,5000.7 C 4150,4941.3 3675.2,4732.7 3344,4424.5 2920.9,4030.1 2760.1,3563 2785,2810.7 c 7.7,-178 21.1,-384.8 30.6,-459.5 11.5,-72.7 24.9,-166.6 30.6,-204.8 9.6,-65.1 5.7,-72.7 -32.5,-72.7 -70.8,0 -164.6,-68.9 -210.6,-157 -38.3,-70.8 -44,-109.1 -42.1,-283.3 1.9,-162.7 11.5,-229.7 51.7,-356.1 55.5,-164.6 160.8,-344.6 260.4,-436.5 32.5,-32.5 59.3,-65.1 59.3,-74.7 0,-30.6 277.6,-572.4 363.7,-712.2 413.5,-664.3 882.5,-1033.8 1426.2,-1129.5 210.6,-36.4 344.6,-36.4 555.2,0 365.7,65.1 641.3,218.3 959.1,534.1 262.4,264.2 463.4,557.1 687.4,1010.8 97.6,195.3 191.4,358 235.4,405.8 176.1,191.4 275.7,459.5 279.5,748.5 1.9,158.9 -5.8,206.8 -40.2,281.4 -45.9,99.6 -114.9,153.1 -199.1,157 -55.5,1.9 -57.4,5.7 -47.9,68.9 68.9,419.3 84.2,1028 30.6,1311.4 -74.7,405.9 -241.2,716 -526.5,982.1 -478.4,448 -1232.7,664.3 -1998.5,576.3 z M 4234.2,3440.4 C 4843,2892.9 5543.6,2638.3 6608.1,2578.9 l 229.7,-13.4 v -63.2 c 0,-95.7 -53.6,-459.5 -105.3,-721.7 -26.8,-128.3 -47.9,-241.2 -47.9,-252.7 1.9,-9.6 26.8,40.2 59.4,114.9 103.4,241.2 199.1,329.3 291,268 191.4,-124.4 118.7,-603 -132.1,-871 -57.4,-61.3 -112.9,-158.9 -180,-308.2 -239.3,-534.1 -448,-873 -696.8,-1119.9 -141.7,-141.7 -204.9,-189.5 -337,-252.7 -252.7,-124.4 -365.6,-147.4 -698.7,-147.4 -335,1.9 -453.7,26.8 -689.2,149.3 -373.3,193.3 -687.2,616.4 -1033.7,1391.7 -53.6,120.6 -118.7,231.7 -160.8,277.6 -111,116.8 -149.3,181.9 -202.9,340.8 -86.1,262.3 -55.5,492 76.6,553.3 86.1,40.2 162.7,-40.2 283.3,-300.6 30.6,-63.2 49.8,-93.8 44,-67 -105.3,526.5 -145.5,819.4 -145.5,1058.7 0,183.8 5.7,216.3 49.8,306.3 122.5,241.2 327.4,469 518.8,572.4 74.7,42.1 245,101.5 312,109.1 5.7,1.9 91.9,-72.8 191.4,-162.8 z"
       inkscape:connector-curvature="0"
       style="fill:#fd3272;fill-opacity:1" /><path
       id="path906"
       d="m 3382.3,-1443.2 c -42.1,-15.3 -283.3,-86.1 -536,-160.8 -982.1,-287.2 -1322.9,-409.7 -1627.2,-585.8 -279.5,-160.8 -428.8,-292.9 -509.2,-449.9 -201,-398.2 -281.4,-830.8 -298.6,-1629.2 L 399.7,-4780 H 5000 9600.3 l -11.5,511.1 c -15.3,668.1 -61.3,997.4 -189.6,1374.5 -116.8,338.9 -241.2,484.3 -599.2,694.9 -289,170.5 -622.1,294.9 -1407,522.8 -289.1,86.2 -603,178 -694.9,208.7 l -170.4,53.6 11.5,-45.9 c 21,-78.5 15.3,-536 -7.7,-662.4 -97.6,-539.9 -717.9,-1437.7 -1301.8,-1881.8 -243.1,-185.7 -212.5,-183.8 -442.2,-11.5 -440.3,331.2 -863.4,853.8 -1144.8,1412.8 -166.6,335 -222.1,618.3 -193.4,991.7 7.7,105.3 13.4,193.4 11.5,193.4 0,1.7 -36.3,-9.8 -78.5,-25.1 z"
       inkscape:connector-curvature="0"
       style="fill:#fd3272;fill-opacity:1" /><path
       id="path908"
       d="m 4586.5,-1496.8 c -53.6,-45.9 -120.6,-114.9 -151.2,-153.1 l -51.7,-68.9 67,-103.4 c 74.7,-111 174.2,-218.2 289.1,-310.1 l 74.7,-59.3 -214.4,-532.2 -212.5,-530.3 84.2,-116.8 c 91.9,-130.2 229.7,-264.2 407.8,-400.1 l 116.8,-90 112.9,84.2 c 139.8,105.3 333.1,296.7 430.7,425 l 72.8,97.6 -212.5,530.3 -214.4,528.4 153.1,149.3 c 82.3,80.4 180,187.6 214.4,239.3 l 61.3,90 -59.4,76.6 c -32.5,42.1 -99.6,109.1 -147.4,153.1 l -88.1,76.6 h -317.8 -317.8 z"
       inkscape:connector-curvature="0"
       style="fill:#fd3272;fill-opacity:1" /></g></g></svg>