<?xml version="1.0" encoding="UTF-8" standalone="no"?>
<!-- Generator: Adobe Illustrator 19.0.0, SVG Export Plug-In . SVG Version: 6.00 Build 0)  -->

<svg
   xmlns:dc="http://purl.org/dc/elements/1.1/"
   xmlns:cc="http://creativecommons.org/ns#"
   xmlns:rdf="http://www.w3.org/1999/02/22-rdf-syntax-ns#"
   xmlns:svg="http://www.w3.org/2000/svg"
   xmlns="http://www.w3.org/2000/svg"
   xmlns:sodipodi="http://sodipodi.sourceforge.net/DTD/sodipodi-0.dtd"
   xmlns:inkscape="http://www.inkscape.org/namespaces/inkscape"
   version="1.1"
   id="Capa_1"
   x="0px"
   y="0px"
   viewBox="0 0 30.419001 29.823"
   xml:space="preserve"
   sodipodi:docname="icon-upload.svg"
   width="30.419001"
   height="29.823"
   inkscape:version="0.92.3 (2405546, 2018-03-11)"><metadata
   id="metadata49"><rdf:RDF><cc:Work
       rdf:about=""><dc:format>image/svg+xml</dc:format><dc:type
         rdf:resource="http://purl.org/dc/dcmitype/StillImage" /><dc:title></dc:title></cc:Work></rdf:RDF></metadata><defs
   id="defs47" /><sodipodi:namedview
   pagecolor="#ffffff"
   bordercolor="#666666"
   borderopacity="1"
   objecttolerance="10"
   gridtolerance="10"
   guidetolerance="10"
   inkscape:pageopacity="0"
   inkscape:pageshadow="2"
   inkscape:window-width="1920"
   inkscape:window-height="1017"
   id="namedview45"
   showgrid="false"
   inkscape:zoom="1.84375"
   inkscape:cx="37.620524"
   inkscape:cy="69.878201"
   inkscape:window-x="-8"
   inkscape:window-y="-8"
   inkscape:window-maximized="1"
   inkscape:current-layer="Capa_1" />

<g
   id="g4565"
   transform="matrix(0.06337394,0,0,0.06337394,-1.0142283,-2.6246928)"
   style="fill:#ff194e;fill-opacity:1"><g
     id="g6"
     style="fill:#ff194e;fill-opacity:1">
	<g
   id="g4"
   style="fill:#ff194e;fill-opacity:1">
		<path
   sodipodi:nodetypes="ccscccscsssscssc"
   inkscape:connector-curvature="0"
   id="path2"
   d="m 380.032,174.89168 -112,-128.000001 c -3.04,-3.456 -7.424,-5.472 -12.032,-5.472 -4.608,0 -8.992,2.016 -12.032,5.472 l -112,128.000001 c -4.128,4.736 -5.152,11.424 -2.528,17.152 2.592,5.696 8.288,9.376 14.56,9.376 h 64 v 167.86441 c 0,8.832 7.168,16 16,16 h 64 c 8.832,0 16,-7.168 16,-16 V 201.41968 h 64 c 6.272,0 11.968,-3.648 14.56,-9.376 2.592,-5.728 1.632,-12.448 -2.528,-17.152 z"
   style="fill:#ff194e;fill-opacity:1" />
	</g>
</g><g
     id="g12"
     style="fill:#ff194e;fill-opacity:1">
	<g
   id="g10"
   style="fill:#ff194e;fill-opacity:1">
		<path
   id="path8"
   d="m 432,352 v 96 H 80 V 352 H 16 v 128 c 0,17.696 14.336,32 32,32 h 416 c 17.696,0 32,-14.304 32,-32 V 352 Z"
   inkscape:connector-curvature="0"
   style="fill:#ff194e;fill-opacity:1" />
	</g>
</g></g>
<g
   id="g14"
   transform="translate(0,-482.177)">
</g>
<g
   id="g16"
   transform="translate(0,-482.177)">
</g>
<g
   id="g18"
   transform="translate(0,-482.177)">
</g>
<g
   id="g20"
   transform="translate(0,-482.177)">
</g>
<g
   id="g22"
   transform="translate(0,-482.177)">
</g>
<g
   id="g24"
   transform="translate(0,-482.177)">
</g>
<g
   id="g26"
   transform="translate(0,-482.177)">
</g>
<g
   id="g28"
   transform="translate(0,-482.177)">
</g>
<g
   id="g30"
   transform="translate(0,-482.177)">
</g>
<g
   id="g32"
   transform="translate(0,-482.177)">
</g>
<g
   id="g34"
   transform="translate(0,-482.177)">
</g>
<g
   id="g36"
   transform="translate(0,-482.177)">
</g>
<g
   id="g38"
   transform="translate(0,-482.177)">
</g>
<g
   id="g40"
   transform="translate(0,-482.177)">
</g>
<g
   id="g42"
   transform="translate(0,-482.177)">
</g>
</svg>