<?xml version="1.0" encoding="UTF-8" standalone="no"?>
<!-- Created with Inkscape (http://www.inkscape.org/) -->

<svg
   xmlns:dc="http://purl.org/dc/elements/1.1/"
   xmlns:cc="http://creativecommons.org/ns#"
   xmlns:rdf="http://www.w3.org/1999/02/22-rdf-syntax-ns#"
   xmlns:svg="http://www.w3.org/2000/svg"
   xmlns="http://www.w3.org/2000/svg"
   xmlns:xlink="http://www.w3.org/1999/xlink"
   xmlns:sodipodi="http://sodipodi.sourceforge.net/DTD/sodipodi-0.dtd"
   xmlns:inkscape="http://www.inkscape.org/namespaces/inkscape"
   width="25.000999mm"
   height="6.8200002mm"
   viewBox="0 0 25.000999 6.8200002"
   version="1.1"
   id="svg866"
   inkscape:version="0.92.3 (2405546, 2018-03-11)"
   sodipodi:docname="logo.svg">
  <defs
     id="defs860">
    <linearGradient
       inkscape:collect="always"
       id="linearGradient859">
      <stop
         style="stop-color:#007b9f;stop-opacity:1;"
         offset="0"
         id="stop855" />
      <stop
         style="stop-color:#00639f;stop-opacity:1"
         offset="1"
         id="stop857" />
    </linearGradient>
    <linearGradient
       inkscape:collect="always"
       xlink:href="#linearGradient1104-5"
       id="linearGradient983"
       gradientUnits="userSpaceOnUse"
       x1="751.94116"
       y1="386.93451"
       x2="770.06049"
       y2="386.93451" />
    <linearGradient
       inkscape:collect="always"
       id="linearGradient1104-5">
      <stop
         style="stop-color:#fd32aa;stop-opacity:1"
         offset="0"
         id="stop1100" />
      <stop
         style="stop-color:#fd0404;stop-opacity:1"
         offset="1"
         id="stop1102" />
    </linearGradient>
    <linearGradient
       inkscape:collect="always"
       xlink:href="#linearGradient1104-5"
       id="linearGradient981"
       gradientUnits="userSpaceOnUse"
       gradientTransform="matrix(0.46898046,0,0,0.46898046,2551.1074,1821.1688)"
       x1="2849.1851"
       y1="1450.0227"
       x2="2909.4951"
       y2="1489.2242" />
    <linearGradient
       inkscape:collect="always"
       xlink:href="#linearGradient859"
       id="linearGradient861"
       x1="14.97664"
       y1="304.01181"
       x2="30.87409"
       y2="302.681"
       gradientUnits="userSpaceOnUse"
       gradientTransform="translate(-0.84995002)" />
  </defs>
  <sodipodi:namedview
     id="base"
     pagecolor="#ffffff"
     bordercolor="#666666"
     borderopacity="1.0"
     inkscape:pageopacity="0.0"
     inkscape:pageshadow="2"
     inkscape:zoom="1.979899"
     inkscape:cx="94.430956"
     inkscape:cy="70.026169"
     inkscape:document-units="mm"
     inkscape:current-layer="text979"
     showgrid="false"
     inkscape:window-width="1920"
     inkscape:window-height="1001"
     inkscape:window-x="2391"
     inkscape:window-y="-9"
     inkscape:window-maximized="1" />
  <metadata
     id="metadata863">
    <rdf:RDF>
      <cc:Work
         rdf:about="">
        <dc:format>image/svg+xml</dc:format>
        <dc:type
           rdf:resource="http://purl.org/dc/dcmitype/StillImage" />
        <dc:title />
      </cc:Work>
    </rdf:RDF>
  </metadata>
  <g
     inkscape:label="Layer 1"
     inkscape:groupmode="layer"
     id="layer1"
     transform="translate(0,-290.18)">
    <g
       id="g847"
       transform="matrix(0.88913057,0,0,0.88913057,-3.8409142,25.401366)">
      <g
         aria-label="jobbly"
         style="font-style:normal;font-weight:normal;font-size:6.30541801px;line-height:1.25;font-family:sans-serif;letter-spacing:0px;word-spacing:0px;fill:#273975;fill-opacity:1;stroke:none;stroke-width:0.15763547"
         id="text979"
         transform="matrix(0.87527306,0,0,0.87527306,0.53879927,37.143039)">
        <text
           id="text975"
           y="304.13559"
           x="14.375826"
           style="font-style:normal;font-weight:normal;font-size:6.20360231px;line-height:1.25;font-family:sans-serif;letter-spacing:0px;word-spacing:0px;fill:url(#linearGradient861);fill-opacity:1;stroke:none;stroke-width:0.15509006"
           xml:space="preserve"><tspan
             style="font-style:normal;font-variant:normal;font-weight:bold;font-stretch:normal;font-family:'Antipasto Pro';-inkscape-font-specification:'Antipasto Pro Bold';fill:url(#linearGradient861);fill-opacity:1;stroke-width:0.15509006"
             y="304.13559"
             x="14.375826"
             id="tspan973"
             sodipodi:role="line">jobbly</tspan></text>
        <g
           style="fill:url(#linearGradient983);fill-opacity:1"
           transform="matrix(0.46140768,0,0,0.46140768,-342.60524,123.15961)"
           id="g979">
          <path
             inkscape:connector-curvature="0"
             id="path977"
             transform="matrix(0.56416706,0,0,0.56416706,-1439.2507,-1027.4434)"
             d="m 3900,2492.7402 c -2.8527,0 -4.6587,1.6264 -5.4141,3.1504 -0.7553,1.524 -0.7246,3.0059 -0.7246,3.0059 h -3.6406 c -3.4781,0 -6.2793,2.8012 -6.2793,6.2793 v 9.8457 c 0,3.4781 2.8012,6.2773 6.2793,6.2773 h 19.5605 c 3.4781,0 6.2774,-2.7992 6.2774,-6.2773 v -9.8457 c 0,-3.4781 -2.7993,-6.2793 -6.2774,-6.2793 h -3.6425 c 0,0 0.031,-1.4818 -0.7246,-3.0059 -0.7553,-1.524 -2.5614,-3.1504 -5.4141,-3.1504 z m 0,2.7832 c 1.9316,0 2.4991,0.7505 2.9219,1.6036 0.4228,0.853 0.4375,1.7695 0.4375,1.7695 h -6.7168 c 0,0 0.013,-0.9165 0.4355,-1.7695 0.4228,-0.8531 0.9903,-1.6036 2.9219,-1.6036 z m -8.7168,6.6387 a 4.166389,4.166389 0 0 1 4.1641,4.166 4.166389,4.166389 0 0 1 -4.1641,4.168 4.166389,4.166389 0 0 1 -4.168,-4.168 4.166389,4.166389 0 0 1 4.168,-4.166 z m 0,1.9473 a 2.2192823,2.2192823 0 0 0 -2.2187,2.2187 2.2192823,2.2192823 0 0 0 2.2187,2.2207 2.2192823,2.2192823 0 0 0 2.2208,-2.2207 2.2192823,2.2192823 0 0 0 -2.2208,-2.2187 z"
             style="color:#000000;font-style:normal;font-variant:normal;font-weight:normal;font-stretch:normal;font-size:medium;line-height:normal;font-family:sans-serif;font-variant-ligatures:normal;font-variant-position:normal;font-variant-caps:normal;font-variant-numeric:normal;font-variant-alternates:normal;font-feature-settings:normal;text-indent:0;text-align:start;text-decoration:none;text-decoration-line:none;text-decoration-style:solid;text-decoration-color:#000000;letter-spacing:normal;word-spacing:normal;text-transform:none;writing-mode:lr-tb;direction:ltr;text-orientation:mixed;dominant-baseline:auto;baseline-shift:baseline;text-anchor:start;white-space:normal;shape-padding:0;clip-rule:nonzero;display:inline;overflow:visible;visibility:visible;opacity:1;isolation:auto;mix-blend-mode:normal;color-interpolation:sRGB;color-interpolation-filters:linearRGB;solid-color:#000000;solid-opacity:1;vector-effect:none;fill:url(#linearGradient981);fill-opacity:1;fill-rule:nonzero;stroke:none;stroke-width:2.78072667;stroke-linecap:butt;stroke-linejoin:miter;stroke-miterlimit:4;stroke-dasharray:none;stroke-dashoffset:0;stroke-opacity:1;color-rendering:auto;image-rendering:auto;shape-rendering:auto;text-rendering:auto;enable-background:accumulate" />
        </g>
      </g>
    </g>
  </g>
</svg>
